<svg width="13" height="13" viewBox="0 0 13 13" fill="none" xmlns="http://www.w3.org/2000/svg">
<path d="M12.625 1.3086C12.625 1.1172 12.543 0.953101 12.4062 0.816401C12.2695 0.707001 12.1055 0.625 11.9414 0.625H1.0586C0.839801 0.625 0.675799 0.707001 0.566399 0.816401C0.429699 0.953101 0.375 1.1172 0.375 1.3086V12.1914C0.375 12.3828 0.429699 12.5469 0.566399 12.6836C0.675799 12.8203 0.839801 12.875 1.0586 12.875H6.9102V8.1172H5.3242V6.2852H6.9102V4.918C6.9102 4.1523 7.1289 3.5508 7.5664 3.1133C8.0039 2.7031 8.5781 2.4844 9.2891 2.4844C9.8359 2.4844 10.3281 2.5117 10.7109 2.5391V4.207H9.7266C9.3711 4.207 9.125 4.2891 8.9883 4.4531C8.8789 4.5898 8.8242 4.8086 8.8242 5.1094V6.2852H10.6562L10.4102 8.1172H8.8242V12.875H11.9414C12.1328 12.875 12.2969 12.8203 12.4336 12.6836C12.543 12.5469 12.625 12.3828 12.625 12.1914V1.3086Z" fill="white"/>
</svg>
