<svg width="14" height="15" viewBox="0 0 14 15" fill="none" xmlns="http://www.w3.org/2000/svg">
<path d="M4.758 11.6055C4.758 11.6055 4.73 11.5781 4.703 11.5508C4.676 11.5508 4.64799 11.5234 4.59399 11.5234C4.48399 11.5234 4.457 11.5781 4.457 11.6328C4.457 11.7148 4.48399 11.7422 4.59399 11.7422C4.70299 11.7422 4.758 11.6875 4.758 11.6055ZM3.91 11.4961C3.91 11.4414 3.96501 11.4141 4.07401 11.4414C4.15601 11.4688 4.18401 11.4961 4.18401 11.5508C4.18401 11.6055 4.156 11.6328 4.129 11.6328C4.074 11.6602 4.047 11.6602 4.02 11.6328C3.965 11.6328 3.938 11.6055 3.91 11.5781C3.883 11.5508 3.883 11.5234 3.91 11.4961ZM5.11301 11.4414C5.19501 11.4414 5.25 11.4688 5.25 11.5234C5.25 11.5781 5.22301 11.6328 5.14101 11.6602C5.08601 11.6602 5.05901 11.6602 5.03101 11.6602C5.00401 11.6602 4.97701 11.6055 4.97701 11.5508C4.97701 11.4961 5.00401 11.4688 5.11301 11.4414ZM6.918 0.968796C8.148 0.968796 9.29701 1.2695 10.363 1.8438C11.402 2.4453 12.25 3.2383 12.852 4.2227C13.453 5.2617 13.781 6.4102 13.781 7.6406C13.781 9.1719 13.344 10.5117 12.496 11.7148C11.648 12.918 10.555 13.7383 9.188 14.1758C9.023 14.2305 8.914 14.2031 8.832 14.1211C8.75 14.0664 8.72301 13.957 8.72301 13.8477V11.5508C8.72301 10.9766 8.559 10.5664 8.258 10.293C8.914 10.2383 9.43399 10.1289 9.76199 10.0195C10.254 9.8555 10.664 9.582 10.938 9.1992C11.238 8.7344 11.402 8.0781 11.402 7.2578C11.402 6.9297 11.32 6.6289 11.211 6.3555C11.102 6.1914 10.938 5.9453 10.691 5.6719C10.746 5.5078 10.801 5.2891 10.828 5.0156C10.828 4.6328 10.773 4.2227 10.637 3.8125C10.445 3.7578 10.199 3.8125 9.871 3.9219C9.652 4.0312 9.379 4.1406 9.105 4.3047L8.75 4.5508C8.176 4.3867 7.602 4.3047 7 4.3047C6.398 4.3047 5.85199 4.3867 5.30499 4.5508L4.94901 4.3047C4.64801 4.1406 4.37501 4.0312 4.15601 3.9219C3.82801 3.8125 3.582 3.7578 3.418 3.8125C3.254 4.2227 3.17201 4.6328 3.22701 5.0156C3.22701 5.2891 3.254 5.4805 3.336 5.6445C3.117 5.918 2.95299 6.1914 2.84399 6.4102C2.73399 6.6289 2.707 6.9297 2.707 7.2578C2.707 8.0781 2.844 8.7344 3.145 9.1719C3.391 9.5547 3.773 9.8555 4.293 10.0195C4.621 10.1289 5.113 10.2383 5.77 10.293C5.523 10.5117 5.387 10.8398 5.332 11.2227C5.004 11.3867 4.70299 11.4414 4.42999 11.3867C3.93799 11.3594 3.582 11.1133 3.336 10.6484C3.227 10.457 3.06199 10.293 2.89799 10.1562C2.76199 10.1016 2.62501 10.0195 2.48801 9.9648L2.297 9.9375C2.078 9.9375 1.96899 9.9922 1.96899 10.0469C1.96899 10.1016 1.996 10.1836 2.105 10.2383L2.242 10.3477C2.352 10.4297 2.488 10.5391 2.625 10.7031C2.734 10.8398 2.81599 10.9766 2.89799 11.1406L3.008 11.3594C3.09 11.6328 3.25399 11.8516 3.52699 11.9883C3.74599 12.125 3.99201 12.207 4.32001 12.2344C4.53901 12.2617 4.758 12.2617 5.004 12.207L5.30499 12.1797L5.332 13.8477C5.332 13.957 5.27701 14.0664 5.19501 14.1211C5.11301 14.2031 5.004 14.2305 4.867 14.1758C3.473 13.7383 2.352 12.918 1.504 11.7148C0.628998 10.5117 0.218994 9.1719 0.218994 7.6406C0.218994 6.4102 0.491994 5.2891 1.09399 4.25C1.66799 3.2383 2.461 2.4453 3.5 1.8438C4.512 1.2695 5.66 0.968796 6.918 0.968796ZM2.871 10.4023C2.898 10.375 2.953 10.375 3.008 10.4297C3.062 10.4844 3.062 10.5391 3.035 10.5664C2.98 10.6211 2.95299 10.5938 2.89799 10.5391C2.84399 10.4844 2.816 10.457 2.871 10.4023ZM2.57001 10.1836C2.59801 10.1562 2.652 10.1562 2.707 10.1836C2.762 10.2109 2.76199 10.2383 2.76199 10.293C2.73399 10.3477 2.68 10.3477 2.625 10.293C2.57 10.2656 2.54301 10.2383 2.57001 10.1836ZM3.47301 11.1406C3.47301 11.1406 3.49999 11.1406 3.55499 11.1406C3.58199 11.1406 3.60899 11.168 3.63699 11.1953C3.66399 11.2227 3.69099 11.25 3.69099 11.2773C3.69099 11.332 3.69099 11.3594 3.69099 11.3594C3.63699 11.4141 3.555 11.4141 3.5 11.332C3.445 11.3047 3.44501 11.2773 3.44501 11.2227C3.44501 11.1953 3.44501 11.168 3.47301 11.1406ZM3.145 10.7578C3.172 10.7578 3.19901 10.7578 3.22701 10.7578C3.25401 10.7578 3.28101 10.7852 3.30901 10.8125C3.36301 10.8945 3.36301 10.9492 3.30901 10.9766C3.28101 11.0039 3.25401 11.0039 3.22701 10.9766C3.19901 10.9766 3.172 10.9492 3.145 10.9219C3.09 10.8398 3.09 10.7852 3.145 10.7578Z" fill="white"/>
</svg>
