<svg width="13" height="13" viewBox="0 0 13 13" fill="none" xmlns="http://www.w3.org/2000/svg">
<path d="M6.5 3.6055C7.0469 3.6055 7.5664 3.7695 8.0586 4.043C8.5508 4.3164 8.9336 4.6992 9.207 5.1914C9.4805 5.6836 9.6445 6.2031 9.6445 6.75C9.6445 7.3242 9.4805 7.8438 9.207 8.3359C8.9336 8.8281 8.5508 9.2109 8.0586 9.4844C7.5664 9.7578 7.0469 9.8945 6.5 9.8945C5.9258 9.8945 5.4062 9.7578 4.9141 9.4844C4.4219 9.2109 4.0391 8.8281 3.7656 8.3359C3.4922 7.8438 3.3555 7.3242 3.3555 6.75C3.3555 6.2031 3.4922 5.6836 3.7656 5.1914C4.0391 4.6992 4.4219 4.3164 4.9141 4.043C5.4062 3.7695 5.9258 3.6055 6.5 3.6055ZM6.5 8.8008C7.0469 8.8008 7.5391 8.6094 7.9492 8.1992C8.332 7.8164 8.5508 7.3242 8.5508 6.75C8.5508 6.2031 8.332 5.7109 7.9492 5.3008C7.5391 4.918 7.0469 4.6992 6.5 4.6992C5.9258 4.6992 5.4336 4.918 5.0508 5.3008C4.6406 5.7109 4.4492 6.2031 4.4492 6.75C4.4492 7.3242 4.6406 7.8164 5.0508 8.1992C5.4336 8.6094 5.9258 8.8008 6.5 8.8008ZM10.5195 3.4688C10.5195 3.2773 10.4375 3.1133 10.3008 2.9492C10.1367 2.8125 9.9727 2.7305 9.7812 2.7305C9.5625 2.7305 9.3984 2.8125 9.2617 2.9492C9.0977 3.1133 9.043 3.2773 9.043 3.4688C9.043 3.6875 9.0977 3.8516 9.2617 3.9883C9.3984 4.1523 9.5625 4.207 9.7812 4.207C9.9727 4.207 10.1367 4.1523 10.2734 3.9883C10.4102 3.8516 10.4922 3.6875 10.5195 3.4688ZM12.5977 4.207C12.5977 4.7266 12.625 5.5742 12.625 6.75C12.625 7.9531 12.5977 8.8008 12.5703 9.3203C12.543 9.8398 12.4609 10.2773 12.3516 10.6602C12.1875 11.125 11.9141 11.5352 11.5859 11.8633C11.2578 12.1914 10.8477 12.4375 10.4102 12.6016C10.0273 12.7383 9.5625 12.8203 9.043 12.8477C8.5234 12.875 7.6758 12.875 6.5 12.875C5.2969 12.875 4.4492 12.875 3.9297 12.8477C3.4102 12.8203 2.9727 12.7383 2.5898 12.5742C2.125 12.4375 1.7148 12.1914 1.3867 11.8633C1.0586 11.5352 0.812499 11.125 0.648399 10.6602C0.511699 10.2773 0.4297 9.8398 0.4023 9.3203C0.375 8.8008 0.375 7.9531 0.375 6.75C0.375 5.5742 0.375 4.7266 0.4023 4.207C0.4297 3.6875 0.511699 3.2227 0.648399 2.8398C0.812499 2.4023 1.0586 1.9922 1.3867 1.6641C1.7148 1.3359 2.125 1.0625 2.5898 0.898399C2.9727 0.789099 3.4102 0.707001 3.9297 0.679701C4.4492 0.652301 5.2969 0.625 6.5 0.625C7.6758 0.625 8.5234 0.652301 9.043 0.679701C9.5625 0.707001 10.0273 0.789099 10.4102 0.898399C10.8477 1.0625 11.2578 1.3359 11.5859 1.6641C11.9141 1.9922 12.1875 2.4023 12.3516 2.8398C12.4609 3.2227 12.543 3.6875 12.5977 4.207ZM11.2852 10.3594C11.3945 10.0586 11.4492 9.5664 11.5039 8.8828C11.5039 8.5 11.5312 7.9258 11.5312 7.1875V6.3125C11.5312 5.5742 11.5039 5 11.5039 4.6172C11.4492 3.9336 11.3945 3.4414 11.2852 3.1406C11.0664 2.5938 10.6562 2.1836 10.1094 1.9648C9.8086 1.8555 9.3164 1.8008 8.6328 1.7461C8.2227 1.7461 7.6484 1.7188 6.9375 1.7188H6.0625C5.3242 1.7188 4.75 1.7461 4.3672 1.7461C3.6836 1.8008 3.1914 1.8555 2.8906 1.9648C2.3164 2.1836 1.9336 2.5938 1.7148 3.1406C1.6055 3.4414 1.5234 3.9336 1.4961 4.6172C1.4688 5.0273 1.4688 5.6016 1.4688 6.3125V7.1875C1.4688 7.9258 1.4688 8.5 1.4961 8.8828C1.5234 9.5664 1.6055 10.0586 1.7148 10.3594C1.9336 10.9336 2.3438 11.3164 2.8906 11.5352C3.1914 11.6445 3.6836 11.7266 4.3672 11.7539C4.75 11.7812 5.3242 11.7812 6.0625 11.7812H6.9375C7.6758 11.7812 8.25 11.7812 8.6328 11.7539C9.3164 11.7266 9.8086 11.6445 10.1094 11.5352C10.6562 11.3164 11.0664 10.9062 11.2852 10.3594Z" fill="white"/>
</svg>
