<svg width="14" height="12" viewBox="0 0 14 12" fill="none" xmlns="http://www.w3.org/2000/svg">
<path d="M12.551 2.9062C13.098 2.4961 13.59 2.0039 14 1.4023C13.453 1.6484 12.906 1.8125 12.359 1.8672C12.961 1.4844 13.398 0.9648 13.617 0.2812C13.043 0.6094 12.441 0.8555 11.785 0.9648C11.512 0.6914 11.184 0.472699 10.828 0.308599C10.473 0.144499 10.09 0.0625 9.67999 0.0625C9.15999 0.0625 8.695 0.199199 8.258 0.445299C7.82 0.718799 7.46499 1.0742 7.21899 1.5117C6.94499 1.9492 6.836 2.4414 6.836 2.9336C6.836 3.1523 6.83601 3.3711 6.89101 3.5898C5.71501 3.5352 4.621 3.2617 3.582 2.7148C2.543 2.1953 1.69499 1.4844 0.983994 0.582001C0.710994 1.0469 0.574005 1.5391 0.574005 2.0312C0.574005 2.5234 0.683993 2.9883 0.929993 3.3984C1.14799 3.8359 1.47699 4.1641 1.85899 4.4375C1.39499 4.4375 0.957005 4.3008 0.574005 4.0547V4.1094C0.574005 4.793 0.792996 5.3945 1.23 5.9141C1.668 6.4609 2.215 6.7891 2.871 6.9258C2.598 6.9805 2.352 7.0078 2.105 7.0078C1.941 7.0078 1.75 7.0078 1.586 6.9805C1.75 7.5547 2.07801 8.0195 2.57001 8.4023C3.06201 8.7852 3.60901 8.9492 4.26601 8.9492C3.19901 9.7695 1.99601 10.1797 0.684006 10.1797C0.410006 10.1797 0.191 10.1797 0 10.1523C1.312 11.0273 2.78899 11.4375 4.40199 11.4375C6.06999 11.4375 7.54699 11.0273 8.85899 10.1523C10.035 9.3867 10.965 8.375 11.621 7.0625C12.25 5.8594 12.578 4.5742 12.578 3.2617C12.578 3.0977 12.551 2.9883 12.551 2.9062Z" fill="white"/>
</svg>
